# xmcd
#
# Track frame offsets:
#	150
#	11480
#	28510
#	42015
#	51245
#	72170
#	81400
#	95294
#	105349
#	119829
#
# Disc length: 1753 seconds
#
# Revision: 2
# Processed by: cddbd v1.5.2PL0 Copyright (c) Steve Scherf et al.
# Submitted via: audiograbber 1.83.01
#
DISCID=7a06d70a
DTITLE=Winterbrief - Complaints From The Beauty Class
DYEAR=1999
DGENRE=Indie
TTITLE0=Glow-We
TTITLE1=Me And P St. Beach
TTITLE2=I Want To Be Sexy
TTITLE3=abDC
TTITLE4=Chick Flck
TTITLE5=Art-Loft Rebel
TTITLE6=A Practiced Prescription
TTITLE7=Repressant
TTITLE8=Mr. Majority
TTITLE9=Tricks Of The Trade
EXTD=
EXTT0=
EXTT1=
EXTT2=
EXTT3=
EXTT4=
EXTT5=
EXTT6=
EXTT7=
EXTT8=
EXTT9=
PLAYORDER=
